<svg xmlns:xlink="http://www.w3.org/1999/xlink"  width="18" height="18" viewBox="0 0 15 18" fill="none" xmlns="http://www.w3.org/2000/svg"><path d="M10.7138 4.07812H4.28527L2.83087 1.90638C2.63209 1.56858 2.6271 1.14773 2.81728 0.804872C3.00745 0.462016 3.36347 0.25 3.74955 0.25H6.42812C6.71219 0.25 6.98476 0.365356 7.18566 0.570434L8.03527 1.43747L8.88488 0.570434C9.08577 0.365356 9.35835 0.25 9.64241 0.25H11.2496C11.6356 0.25 11.9917 0.462016 12.1818 0.804872C12.372 1.14776 12.3671 1.56858 12.1682 1.90638L10.7138 4.07812Z" fill="white"></path><path d="M7.04709 9.9167H6.95652C6.78836 9.9167 6.62708 9.97816 6.50817 10.0876C6.38927 10.197 6.32246 10.3453 6.32246 10.5C6.32246 10.6547 6.38927 10.8031 6.50817 10.9125C6.62708 11.0219 6.78836 11.0834 6.95652 11.0834H7.04709V9.9167Z" fill="white"></path><path d="M7.95289 11.9167V13.0834H8.04348C8.21164 13.0834 8.37292 13.0219 8.49182 12.9125C8.61073 12.8031 8.67754 12.6547 8.67754 12.5C8.67754 12.3453 8.61073 12.197 8.49182 12.0876C8.37292 11.9782 8.21164 11.9167 8.04348 11.9167H7.95289Z" fill="white"></path><path fill-rule="evenodd" clip-rule="evenodd" d="M10.7143 5.17189H4.28571C1.88993 7.03089 0 10.5184 0 13.2596C0 17.75 3.98464 17.75 7.5 17.75C11.0154 17.75 15 17.75 15 13.2596C15 10.5184 13.1101 7.03089 10.7143 5.17189ZM7.95289 9C7.95289 8.76988 7.75012 8.58333 7.49999 8.58333C7.24986 8.58333 7.04709 8.76988 7.04709 9V9.08337H6.95652C6.54813 9.08337 6.15646 9.23263 5.86768 9.4983C5.5789 9.76398 5.41667 10.1243 5.41667 10.5C5.41667 10.8758 5.5789 11.2361 5.86768 11.5018C6.15646 11.7674 6.54813 11.9167 6.95652 11.9167H7.04709V13.0834H6.95652L6.94128 13.0836C6.82636 13.0872 6.71254 13.0619 6.61202 13.0105C6.5115 12.9592 6.42806 12.8836 6.37063 12.7919C6.24571 12.5926 5.96877 12.5241 5.75207 12.6391C5.53537 12.754 5.46097 13.0088 5.58589 13.2081C5.72537 13.4307 5.92801 13.6142 6.17213 13.739C6.41383 13.8625 6.68719 13.9239 6.96348 13.9167H7.04709V14C7.04709 14.2301 7.24986 14.4167 7.49999 14.4167C7.75012 14.4167 7.95289 14.2301 7.95289 14V13.9167H8.04348C8.45187 13.9167 8.84354 13.7674 9.13232 13.5018C9.4211 13.2361 9.58333 12.8758 9.58333 12.5C9.58333 12.1243 9.4211 11.764 9.13232 11.4983C8.84354 11.2326 8.45187 11.0834 8.04348 11.0834H7.95289V9.9167H8.04348L8.05872 9.91647C8.17364 9.91291 8.28746 9.93817 8.38798 9.98955C8.4885 10.0409 8.57194 10.1165 8.62937 10.2081C8.75429 10.4075 9.03123 10.4759 9.24793 10.361C9.46463 10.2461 9.53903 9.9913 9.41411 9.79194C9.27463 9.56935 9.07199 9.38585 8.82787 9.26108C8.58616 9.13754 8.31281 9.07618 8.03652 9.08337H7.95289V9Z" fill="white"></path></svg>